<?xml version="1.0" encoding="utf-8"?>
<!-- Generator: Adobe Illustrator 18.1.1, SVG Export Plug-In . SVG Version: 6.00 Build 0)  -->
<svg version="1.1" id="Layer_1" xmlns="http://www.w3.org/2000/svg" xmlns:xlink="http://www.w3.org/1999/xlink" x="0px" y="0px"
	 viewBox="0 0 612 792" enable-background="new 0 0 612 792" xml:space="preserve">
<g>
	<g>
		<path fill="#A6399F" d="M33,456.9c-1.8,3.4-5.1,4.8-8.9,3.8c-6.7-2.2-7.9-7.6-7.8-13.5c0.5-11.8,0-23.8-0.1-35.7
			c-0.1-11.9-0.9-23.8-0.2-35.7c0.4-7.2,0-14.5,1.6-21.8c0.9-3.8-0.4-7.6,0.5-11.5c2.7-11.6,3.8-23.7,7.2-35.2
			c2.7-9.1,5.1-18.4,8.2-27.4c3.5-10.7,8-21.1,12.8-31.2C54.3,231,65,215.2,76,199.3c5.5-7.9,12.6-14.6,18.5-22.2
			c6.1-7.6,14-13.2,20.4-20.5c4.8-5.7,11-9.9,16.8-14.4c10.5-8,21.3-15.4,32.9-21.7c15.4-8.5,31.2-16,48-21.3
			c7.9-2.6,15.7-5.5,23.9-7.2c11.3-2.3,22.6-4.8,34.1-6.2c11.9-1.5,23.9-2.8,35.8-2.6c12.3,0.2,24.6,1.2,36.9,2.8
			c15.1,1.8,29.6,5.7,44.4,9.1c0.9,0.2,1.8,0.9,2.6,1.3c9.6,3.8,19.5,6.8,29.1,11c17.6,7.6,34.1,16.7,49.9,27.6
			c16.7,11.6,32.3,24.7,46.4,39.6c1.6,1.8,3.4,3.5,5.2,5.1l0.1,0.1c6.5,8.5,13.8,16.6,20.1,25.4c7.7,10.7,14.4,21.9,20.7,33.5
			c7.4,13.8,13.5,28.2,18.5,42.9c3.4,9.9,6.2,20,8.5,30.2c2.2,10,4.1,20.1,5.6,30.2c0.7,5,1.3,10.1,1.6,15.1
			c0.7,15.4,1.5,30.7-0.2,46.1c-1.1,9.9-2.2,19.7-3.8,29.5c-2.1,11.9-5.1,23.7-8.7,35.2c-4.1,13.9-9.4,27.6-15.7,40.5
			c-5.1,10.2-10.4,20.4-16.8,29.7c-4.5,6.5-8.7,12.9-13,19.4c-3.2,4.5-6.9,6.1-11.5,4.8c-3.9-1.2-8.3-5.1-7.6-11.8
			c0.2-2.9,2.2-4.9,3.9-7.1c14.4-19,26-39.5,34.7-61.8c4.9-12.3,8.9-24.7,11.8-37.7c2.6-11.2,4.5-22.4,5.9-33.9
			c1.6-14.9,2.1-29.7,1.5-44.5c-0.9-18.7-3.9-37.2-8.5-55.5c-5.1-20.2-12.6-39.6-21.8-58.3c-10.9-21.8-25.1-41.6-41.6-59.7
			c-10.9-11.8-22.6-22.8-35.1-32.6c-14.6-11.3-30.5-21-47.2-28.9c-7.6-3.5-15.4-6.6-22.8-10.4c-3.3-1.6-6.9-2.1-10.4-3.2
			c-12.2-3.8-24.5-7.2-37.2-9.1c-10-1.6-20-2.7-30.1-3.4c-8.9-0.5-17.8-0.6-26.7-0.6c-6.2,0-12.8,0-18.9,1.1
			c-11.2,2.1-22.7,2.4-33.5,6.1c-3.9,1.2-7.9,2.4-11.8,3.4c-6.5,1.6-12.6,3.8-18.8,6.2c-4.9,2-10.1,3.4-14.5,6.3
			c-1.2,0.9-2.4,0.1-3.5,0.4c-9.8,3.7-18.9,8.3-27.3,14.5c-1.3,1.1-3.2,1.5-4.1,2.9c-3.9,2.7-7.2,6-11.3,8.4
			c-3.9,2.3-7.6,5.2-11.1,8.2c-4.9,3.9-9.9,7.6-14.4,12.1c-4.3,4.3-9.4,7.9-13,13c-0.2,0.2-0.9,0.4-1.2,0.6
			c-8.5,8.5-16.6,17.7-23.4,27.8c-6.8,8.3-12.2,17.4-17.2,26.8v-0.1c-3.7,5.6-6.6,11.6-9.5,17.6c-4.1,8.4-7.3,17.2-10.6,25.8
			c-1.8,4.9-3.2,9.8-5.1,14.6c-0.2,0.9-0.4,1.7,0.1,2.4c-0.1,1.5-0.2,2.9-1.1,4.3c-2,2-1.7,4.5-2.2,6.8c-2.8,12.2-4.9,24.5-6.2,36.9
			c-1.1,10.7-1.5,21.3-1.3,32.1c0,4.1-0.5,8.4-0.5,12.6c0.1,17.6,0.7,35.2,0.5,52.9C34.6,451.3,34.2,454.2,33,456.9z"/>
		<path fill="#92429D" d="M204.1,357.7c2.9-10.9,6.2-21.5,12.1-31.2c9.5-16.1,22.1-29.4,38.4-38.9c10.2-6,21.1-10.2,32.8-12.1
			c8-1.3,16.2-1.2,24.4-1c7.3,0.2,14.5,1,21.6,2.8c14.5,3.8,27.4,10.4,38.8,20.1c12.4,10.6,22.6,23.2,29,38.4
			c4.8,11.2,7.7,22.8,8.9,34.9c1.1,10.5,0.4,20.8-1.8,31.1c-2.8,12.9-7.9,25.2-15.5,36.5c-11.1,16.6-26,28.6-44,36.8
			c-8.4,3.8-17.2,6.5-26.5,7.8c-2.2,0.4-2.2,0.9-1.6,2.8c3.4,10.5,7.6,20.6,13.3,30c10.5,17.2,23.7,32.4,38.8,45.8
			c1.3,2.8,3.8,4.6,6,6.6c16.3,14.5,33.9,27.4,52.9,38.2c10.5,6,21.2,11.1,32.3,16.1c3.8,1.6,7.8,2.4,11.5,4.1
			c3.9,1.8,6.2,6.2,5.5,10.9c-0.7,4.5-3.8,7.7-7.9,7.9c-3.2,0.2-6.2-0.6-8.9-2c-7.9-3.9-16.5-6.8-24.5-10.7
			c-14.6-7.2-28.5-15.5-41.8-24.6c-11.8-8.2-22.9-17.2-33.8-26.7c-0.7-0.7-1.6-1.2-2.4-1.8c-18.2-16-34.1-33.8-46.4-54.6
			c-6.7-11.3-11.7-23.5-15.5-36.3c-1.5-5.2-2.9-10.5-3.2-15.8c-0.1-5.1,5.6-9.4,10-9.5c29.5-0.7,52.5-13.8,69.4-37.5
			c5.9-8.2,9.1-17.6,11.5-27.6c2.6-10.9,2.7-21.7,1-32.4c-2.6-16.5-9.6-31-20.7-43.5c-10.1-11.3-22.6-19.1-36.9-23.8
			c-10.4-3.4-21.2-3.9-32.2-2.9c-8.4,0.9-16.3,2.7-23.9,5.9c-17.4,7.2-30.4,19.5-39.9,35.6c-5.4,9.1-8.2,19.3-10.2,29.5
			c-0.9,4.4-0.9,9.1-0.9,13.8c-0.1,46.8,0,93.8,0,140.7c0,2,0,3.9,0,5.9c-0.2,0-0.5,0-0.7,0c0-19.1,0-38.2,0-57.4
			c-0.1,0-0.2,0-0.5,0c0,31.2,0,62.5,0,93.9c0.1,0,0.2,0,0.5,0c0-6.5,0-12.9,0-19.5c0.6,9.5,0.9,18.9-0.4,28.4
			c-1.2,9.8-5.2,18.5-8.4,27.6c-4.4,12.2-11.8,22.8-19.7,32.9c-3.5,4.5-7.3,8.9-11.1,13.2c-4.5,5.4-10.6,9.5-16.2,13.9
			c-2.7,2.1-5.9,1.6-8.7-0.4c-2.6-1.8-4.8-3.5-5.1-7.4c-0.5-5.1,2.2-7.7,5.2-10.6c11.9-11.3,23.9-22.8,31.6-37.5
			c8-15.7,12.8-32.2,12.8-49.9c-0.1-21.5,0.1-43,0.2-64.5c0.1-15.8,0.2-31.8-0.1-47.7c0-6.2,0-12.4,0-18.7c0.5-9.8,0-19.5,0.2-29.4
			c0.2-10.7,0-21.5,1.8-32.1C205,360,204.8,358.8,204.1,357.7z"/>
		<path fill="#8E409A" d="M109.2,371.1c0.1-12.7,2.3-25.1,4.9-37.4c3.4-16.1,9-31.5,16.5-46.1c7.8-15.5,17.2-29.9,28.9-42.7
			c7.3-8,14.9-15.7,23.5-22.4c12.3-9.8,25.5-18.2,39.5-24.9c11.8-5.7,24.3-10,37.1-13.2c19-4.8,38.4-6.6,57.8-5.5
			c13.9,0.9,27.8,3.2,41.3,7.1c27.1,7.6,51.2,20.5,72.8,38.3c14.4,11.8,26.8,25.7,37.2,41.5c8.9,13.5,16.7,27.7,22.2,42.9
			c4.3,11.7,8.4,23.7,9.3,36.2c2.9,16.5,3.2,33.2,2.2,49.9c-1.6,28.6-9.8,55.5-23.3,80.7c-8.4,15.7-19.5,29.5-31.7,42.4
			c-5.7,6.1-10.7,4.6-14.9,0.6c-2.3-2.2-2.8-5.4-2.7-8.5c0.5-2.4,1.6-4.5,3.3-6.2c18.9-19.5,33-41.9,41.1-68
			c3.7-11.7,6.1-23.5,7.4-35.7c2.2-21.6,0.9-43-4.1-64.1c-2.7-11.1-6.2-22.1-11.5-32.3c-0.5-1-0.7-2.1-1.1-3.2
			c-2-5.7-5.1-10.7-8.3-15.7c-6-9-13.3-17.1-18.9-26.5c-1.5-2.3-4-2.9-5.7-4.9c-3.5-4.3-7.4-8.5-11.7-11.8
			c-5.6-4.3-11.6-8.4-17.4-12.4c-15-10.1-31.2-17.4-48.5-22.4c-7.8-2.2-15.7-3.7-23.7-5.1c-12.2-2.1-24.5-2.4-36.6-1.6
			c-10.5,0.7-20.8,2.7-31.2,5.2c-6.2,1.6-12.2,3.4-18.3,5.4c-6.9,2.2-13.3,6.1-19.9,9.1c-13.5,6.2-24.7,15.7-36.1,25.1
			c-3.2,2.7-6.1,5.7-9.1,8.5c-3.3,2.9-6.5,6.6-9.1,10.4c-2.4,3.3-4.6,6.9-7.7,9.8c-1.6,1.5-1.2,3.5-2.6,5.1
			c-4.6,5.2-7.2,11.8-10.5,17.8c-4.8,8.4-8,17.4-11.5,26.5c-2.6,7.1-4.9,14.4-5.5,22.1c-0.5,5.1-2.3,10.1-2.4,15.1
			c-0.1,5.1-0.4,10.2-0.9,15.2c-0.5,5.2-1.1,10.4-0.9,15.5c0.9,16.5-0.5,33,0.1,49.5c0.2,6.6-0.5,13.3-1.2,19.9
			c-1.5,14-6.1,27.1-11.5,39.7c-6.1,14.1-14.9,26.2-25.2,37.5c-6.9,7.6-14.4,14.8-22.6,20.8c-4.4,3.3-7.2,3.2-11.9,0.1
			c-2.6-1.7-4.8-7.3-3.7-10.7c0.7-2.4,2.8-4,4.8-5.7c10.5-9,20.5-18.5,28.5-29.9c4.4-2.8,6.2-7.7,8.4-12.1
			c4.4-8.9,8.5-17.9,11.1-27.6c2.2-8.8,3.8-17.7,3.8-26.7C109.2,421.1,109.2,396.1,109.2,371.1z"/>
		<path fill="#A8489A" d="M334.6,229.4c12.6,1.6,24.4,6,35.7,11.3c18,8.4,33.6,20.2,47.1,34.9c11.3,12.6,20.1,26.7,26.8,42.2
			c4.5,10.4,7.7,21.1,9.8,32.1c3,16.2,4,32.8,1.8,49.3c-2,15.1-5.9,29.7-12.2,43.5c-6.2,13.5-14.5,25.7-24.3,37.1
			c-8.8,10.1-18.7,18.8-29.7,26.1c-2.9,1.8-3.3,3.3-0.9,6.1c10.7,12.2,22.7,23.2,35.5,33c16.5,12.8,34.4,23.2,53.5,31.1
			c8.3,3.4,16.8,6.2,25.2,9.4c3.4,1.2,6.8,2.2,10.2,3.2c3.8,1,7.4,2.4,8.8,6.7c1.1,3.4,1.2,7.1-1.6,9.8c-2.8,2.8-6.5,4.3-10.5,3.3
			c-11.2-3-22.3-6.7-33.2-10.7c-14-5.1-27.2-12.1-39.9-19.5c-0.9-0.5-1.6-0.5-2.4-0.7c-12.1-7.3-23.3-15.8-34-25
			c-12.8-10.9-24.1-23-35.1-35.7c-1.2-1.5-2.4-2.9-3.4-4.4c-3.8-6.1-2.3-12.6,3.9-16.2c6.6-3.9,13.3-7.6,19.4-12.2
			c12.8-10,23.5-21.8,31.9-35.7c7.6-12.6,13.4-26,16.1-40.5c2.3-12.6,3.2-25.2,2.2-38c-0.9-10.7-2.6-21.1-5.9-31.2
			c-3.8-11.9-9.5-23.2-16.5-33.6c-12.8-19.1-29.6-33.4-49.9-43.8c-7.4-3.8-15.4-6.3-23.4-8.8c-17.1-5.2-34.5-5.1-51.8-3.2
			c-17.3,2-33.5,8-48.4,17.3c-4.4,2.8-9,5-14,1.5c-7.2-5-6.8-13.2,0.9-18.3c10.1-6.6,21-11.6,32.4-15.2c7.1-2.2,14.1-4,21.2-5.7
			c2.4-0.6,5.1-0.4,7.8-0.5c11.8-1.8,23.8-1.2,35.7-0.1C327.4,228,331.1,228.5,334.6,229.4z"/>
		<path fill="#79379B" d="M85.3,337.7c-2.4,15.8-3.5,31.7-3.8,47.7c-0.1,19.1-0.1,38.3,0.1,57.4c0.1,6.6-0.7,13.2-1.8,19.5
			c-1.5,7.9-4.8,15.5-8.7,22.6c-2.2,4.1-4,8.8-7.1,12.3c-5.5,6.6-10.7,13.4-17.6,18.8c-3.3,2.6-9.1,1.7-12.1-1.2
			c-4.9-5.1-3.5-10.5-1-13.8c4.5-5.6,10.2-9.9,14.1-16c5.5-8.7,10-17.6,12.2-27.8c2-8.8,1.3-17.6,1.3-26.3c0-18.5,0.1-37.1,0.1-55.5
			c0-11.7,1.7-23.5,3.5-35.1c2.6-16.2,6.5-32.1,12.1-47.4c4.1-11.3,9-22.2,14.8-32.9c6-11.1,12.8-21.6,20.2-31.7
			c9.1-12.2,19.4-23.4,30.7-33.5c13.7-12.3,28.3-23,44.1-32.2c14.8-8.4,30.4-15.2,46.6-20.2c16.5-5.1,33.4-8.3,50.6-9.9
			c13.4-1.2,26.8-0.6,40.1-0.6c1.6,0,3.2,0.5,4.8,0.7c4.1,1.1,8.5,1.5,12.8,2.1c21.8,2.8,42.5,9.5,62.8,18.4
			c18.4,8,35.1,18.9,51.1,31.1c3.4,2.6,6.1,5.5,5.9,10.1c-0.2,4.1-2.6,6.5-6.5,8c-5.4,2.2-9-0.2-12.8-3.4
			c-16.1-13.2-33.9-23.2-53.2-31c-10.4-4.3-21.1-7.4-31.8-10.1c-10.7-2.7-21.8-4.3-33-5.2c-14.4-1.1-28.8-0.2-43.2,0.9
			c-10.2,0.9-20.5,2.7-30.5,5.5c-10,2.8-19.9,5.9-29.6,9.8c-18.2,7.4-35,17.1-50.3,29.1c-13.9,11-26.5,23.4-37.7,37.3
			c-8.5,10.6-16.2,21.6-22.7,33.4c-7.9,14.4-14.3,29.4-18.7,45.2C89.5,321.7,88.1,329.8,85.3,337.7z"/>
		<path fill="#8C419F" d="M296.3,423.3c0.2-4.9,5.7-8.2,10-8c16.6,0.5,31.6-12.3,35.1-27.9c4.3-20-8.7-41.2-29.3-44.5
			c-16.2-2.7-31.7,6.2-38.9,21.2c-2.2,4.6-3.2,9.5-3.2,14.6c0,60.5,0.2,120.8-0.1,181.3c-0.1,9.9-1.6,19.9-4.3,29.5
			c-1.8,6.5-3.7,12.7-5.6,19c-5.9,18.7-16.1,35.1-27.6,50.7c-4.9,6.6-10.5,12.6-16.2,18.4c-6.1,6.1-11.6,5.5-17.1-1.2
			c-2.4-2.9-1.7-8.2,1.8-11.6c6.1-6.2,12.2-12.7,17.4-19.7c9.9-13.4,17.3-27.9,22.9-43.6c6.6-18.4,7.9-37.4,7.8-56.7
			c-0.1-41.1,0-82.3,0-123.4c0-8.4-0.2-16.8-0.4-25.4c1.1-9.5,0.6-19,2.3-28.4c0.7-3.9,2.1-7.6,3.5-11.2c0.5-1.1,1.2-2.2,0.7-3.5
			c7.8-15,19.5-25.2,36.2-29.1c8.4-1.5,16.9-2.2,25.5-0.5c9.3,1.8,17.8,5.7,25.1,12.2c11.8,10.5,18.7,23.8,19.9,39.5
			c1.5,17.1-3.7,32.3-15.7,44.5c-9.1,9.3-20.7,14.9-33.8,16.8c-2.8,0.5-5.7,0.1-8.5-0.5C298.7,434.3,295.6,429.1,296.3,423.3z"/>
		<path fill="#C64B96" d="M550.3,384.4c0.1,19.9-2.3,39.4-7.3,58.5c-7.6,28.9-20.1,55.7-37.5,80.2c-5.5,7.8-11.2,15.2-17.9,22.2
			c-5,5.1-12.9,4.3-16.3-2.1c-2.1-3.8-2-7.9,0.9-11.5c4.9-6.3,10.1-12.4,14.9-18.9c11.8-16.2,21.5-33.6,28.5-52.5
			c4-10.9,7.4-22.1,9.8-33.3c1.8-9.1,2.9-18.5,3.5-27.9c0.7-9.5,1-19.1,0.5-28.5c-0.5-13.5-2.4-27.1-5.1-40.4
			c-4.4-21.2-12.1-41.1-22.2-60.1c-7.1-13.2-15.5-25.5-24.9-37.1c-2.9-3.7-2.9-7.8-1.1-11.8c1.7-3.8,6.6-6.2,10.5-5.6
			c4.1,0.7,6.6,3.8,8.9,6.7c10.7,14.3,21.2,28.6,28.8,44.9c6.1,13,12.2,26.2,16,40.1c0.1,0.5,0.1,1,0.1,1.5
			c1.7,12.9,5.2,25.5,7.1,38.4c1,7.2,2.1,14.5,2.2,21.8C549.4,374,550.3,379.1,550.3,384.4z"/>
		<path fill="#7137A0" d="M80.8,588.6c-0.7-3.8,1.5-6.2,4.3-8.4c11.5-9,21.9-19.1,31.1-30.5c10.9-13.5,20.2-27.8,26.8-43.8
			c5.7-13.9,9.1-28.5,11.2-43.4c2.7-19.7,0.9-39.4,1.3-59.1c0.2-13.2-0.6-26.5,0.9-39.5c1.2-10.6,3-21.1,6.2-31.5
			c5.4-17.3,14.1-32.8,24.5-47.3c3.8-5.2,8.8-6.8,13.5-4.5c6.1,2.9,7.9,10.2,3.9,15.8c-3.5,4.9-7.1,9.8-10.7,14.6
			c-3,4.1-4.9,9.3-6.8,14.1c-2.6,6.2-5.5,12.4-6.6,18.9c-1.6,9.1-3.2,18.2-3.9,27.6c-1.6,18.5,0.2,37.2-0.7,55.7
			c-0.5,8.3,0.2,16.7-0.1,24.9c-0.2,5.2,0.2,10.9-1.7,16.3c-1.2,3.7-1.3,8-2.1,12.1c-1.3,7.6-4.8,14.4-6.5,21.8
			c-1.6,6.7-4.9,12.8-7.6,18.9c-3.5,8.2-8.9,15.5-13.7,23c-2.9,4.6-6.1,9-9.1,13.5c-4.9,6.8-11.2,12.3-16.7,18.5
			c-6.3,7.3-14.4,12.8-21.6,19.1c-2.9,2.6-6.6,3.9-10.7,1.8C82.5,595.9,79.9,593.2,80.8,588.6z"/>
		<path fill="#A7439F" d="M420.5,674.2c-3.8,1.2-6.5-2.1-9.5-3.5c-6.6-3.2-13.2-6.8-19.4-10.7c-3.8-2.3-7.6-4.8-11.1-7.4
			c-5-3.8-10.9-6.2-15.8-10.1c-7.9-6.1-16.2-11.8-23.4-19.1c-4.9-4.9-11.1-8.9-16.2-13.8c-8.9-8.5-17.6-17.4-25.6-26.8
			c-2.6-3.2-5.2-6.5-4.3-11c1.1-4.5,4.1-7.4,8.5-8.4c4.8-1.1,8.2,1.5,10.9,4.9c8.2,10.5,17.7,19.7,27.2,28.9
			c13.9,13.2,29,24.9,44.7,35.8c2.9,2.1,5.1,5.1,8.4,6.6c3.9,1.7,6.9,4.8,10.7,6.5c3.2,1.5,6.3,2.8,9,4.8c5,3.8,11.5,5.7,15.2,10.9
			c2.6,3.5-2.6,12.6-7.1,12.7C422.4,674.2,421.6,674.2,420.5,674.2z"/>
		<path fill="#A237A5" d="M313.1,635.2c4.5,3.9,8.7,8.4,13.5,11.5c3.8,2.4,5.7,7.3,10.7,7.8c4.8,6.9,12.8,9.8,18.9,15.1
			c3.7,3.2,7.9,5.6,11.9,8.4c3.8,2.6,2.7,5.9,2.4,8.7c-0.2,3.5-2.8,6.5-6.5,7.4c-3.5,1-6.9,0.2-10-2.4c-3.9-3.4-8.2-6.2-12.4-9.3
			c-3.9-2.7-7.6-5.6-11.2-8.4c-3.5-2.7-7.7-4.8-11.1-7.6c-3.8-3.2-6.8-7.1-10.7-10c-1.8-1.3-3.2-3-4.9-4.5
			c-3.8-2.8-7.4-5.9-10.6-9.3c-2.8-2.9-6.5-5.1-8.7-8.5c-4.3-6.6-1.2-14.4,6.5-15.7c2.6-0.5,4.8,0.5,6.6,2.1
			C303,624.9,308.4,629.7,313.1,635.2z"/>
		<path fill="#742CA0" d="M167.1,567.5c5,0.1,9.9,6.8,9.1,12.2c-0.7,4.6-3.5,7.4-6.5,10.6c-5.6,5.7-10.7,11.9-16.2,17.7
			c-7.7,7.9-15.6,15.7-24.4,22.2c-4.9,3.5-11.5,1.7-14.5-3.3c-1.5-2.3,0-9.9,2.2-11.9c8.7-7.8,17.3-15.6,25.2-24.1
			c5.1-5.5,9.9-11,14.4-16.9C158.9,570.6,162,567.7,167.1,567.5z"/>
		<path fill="#A536B1" d="M299.6,689.8c-0.1,2.9-0.7,6.2-3,7.7c-3.4,2.1-7.2,2.8-11.2-0.1c-4.5-3.2-7.9-7.2-12.2-10.7
			c-3.9-3.3-7.8-6.6-11.8-9.8c-2.4-1.8-2.6-4.9-2.2-8c0.7-4.3,3.3-6.6,7.1-8c5.7-2.2,9,1.8,12.2,5.1c5.1,5.1,10.2,9.9,16,14.3
			C297.4,682.5,299.6,685.6,299.6,689.8z"/>
		<path fill="#8652A1" d="M115.1,156.9c-1,4.1-4.6,6.1-7.4,8.4c-5,4.1-8.8,9.1-13.2,13.8c-4.3,4.5-7.9,9.8-12.6,13.9
			c-3.2,2.8-4.8,6.8-7.1,10.2c-9.1,12.9-17.9,26.3-25.1,40.6C43.2,257.1,37,270.6,32.9,285c-3.8,13.2-8.3,26.1-10.4,39.7
			c-0.7,4.3-1.1,8.7-1.8,12.9c-0.4,2-1.7,3.4-1.6,5.6c0.2,9.3-1.3,18.5-1.6,27.9c-0.2,13.8-0.9,27.4-0.5,41.1
			c0.2,8.5,0.4,17.2,0.6,25.8c0.1,2.3-0.2,4.8-0.5,7.1c-0.7,6.5,1.5,11.9,7.2,15.6c-4.9-0.6-7.9-3.4-8.2-8.4
			c-0.2-8.3-0.2-16.6-0.1-25c0.2-17.4-0.6-34.7-0.6-52.2c0-12.4,1.6-24.9,2.8-37.2c1.2-12.6,4.3-24.6,7.1-36.8
			c2.1-8.9,5.4-17.7,8.5-26.3c6.7-18.4,15.5-35.8,25.6-52.5c9.9-16.5,21.8-31.6,34.9-45.7c6-6.5,12.4-12.3,18.8-18.4
			C113.6,157.5,114.2,156.9,115.1,156.9z"/>
		<path fill="#623E77" d="M204.1,357.7c1.5,0.5,2,1.5,1.7,2.8c-2.9,19.1-2.7,38.5-2.7,57.8c0,1.5,0.5,2.9-0.5,4.3
			c-0.1-14.6,0-29.3-0.2-43.9C202.2,371.6,203.2,364.6,204.1,357.7z"/>
	</g>
</g>
</svg>
