<?xml version="1.0" standalone="no"?>
<!DOCTYPE svg PUBLIC "-//W3C//DTD SVG 20010904//EN"
 "http://www.w3.org/TR/2001/REC-SVG-20010904/DTD/svg10.dtd">
<svg version="1.0" xmlns="http://www.w3.org/2000/svg"
 width="64.000000pt" height="64.000000pt" viewBox="0 0 64.000000 64.000000"
 preserveAspectRatio="xMidYMid meet">

<g transform="translate(0.000000,64.000000) scale(0.100000,-0.100000)"
fill="#000000" stroke="none">
<path d="M268 629 c-203 -31 -320 -259 -229 -444 94 -191 333 -237 494 -96 20
18 51 61 68 96 76 156 12 339 -144 414 -69 33 -120 41 -189 30z m107 -169 c13
-21 -22 -57 -55 -58 -56 -1 -114 -82 -60 -82 11 0 20 -3 20 -6 0 -13 -72 -124
-80 -124 -8 0 -80 111 -80 124 0 3 11 6 25 6 19 0 25 5 25 23 0 32 35 84 72
107 36 22 122 28 133 10z m108 -70 c39 -63 40 -80 6 -80 -11 0 -19 -7 -19 -17
0 -29 -37 -82 -72 -103 -36 -22 -122 -28 -133 -10 -4 6 1 22 9 35 12 18 26 25
48 25 33 0 78 33 78 57 0 7 -9 13 -20 13 -11 0 -20 4 -20 9 0 13 71 131 79
131 3 0 23 -27 44 -60z"/>
</g>
</svg>
